v -0.4575523124512089 0.20024282737144258 -0.10283377585474517
v -0.47980470707106176 -0.1497719171415904 0.05600292292373428
v -0.3585229800163362 -0.07214342227874247 -0.14034716862260713
v 0.4831434666714042 -0.020347999516661806 -0.04887650015409808
v -0.426540230274438 0.019228644971405306 -0.025106085867738232
v -0.42418130085260836 0.20117328019154243 0.07385190036433453
v -0.4234623794073493 -0.19922985768226983 0.05922855797361018
v -0.44544599630193626 0.22160732338241454 -0.11294129084114157
v -0.38146264539923436 -0.012331830406243017 -0.1430020063066184
v -0.4323489763544606 0.04589078516542419 -0.009307510933953125
v -0.3987096193455141 0.004259592460780219 -0.12445850221773673
v 0.48149825292698956 0.011117080982257992 -0.03605684503356315
v -0.41901750898105633 -0.08637643925509256 0.07875734660850657
v -0.4181848330555535 -0.0847497056690542 0.02979508265656992
v 0.4763519726538652 -0.0849493828081171 -0.03870117276438757
v -0.40192902435366773 -0.08744571213422317 -0.12191877955616612
v -0.42211091623987607 0.10463178704298791 -0.03814262414081976
v -0.400730491939971 0.05415459056146399 0.10340065044280478
v -0.3762825044827781 -0.05876858463572977 0.10626066703856638
v -0.43961271875954105 0.18529843149522718 0.01210001735305143
v -0.4337074277387084 0.17496473943207913 -0.01061874268521271
v -0.4299380664630081 -0.1471820919774406 -0.006864191461122802
v -0.4487691508042114 -0.1562097444937761 0.05096377236625403
v -0.39868694873756994 0.12518053875962915 -0.13844711800598697
v -0.42583292406085804 -0.0499312498106526 -0.0012689782691430347
v -0.4721393903189227 -0.14871591686323943 -0.1129081654945939
v -0.42528650314547645 0.19474590953941368 -0.12578373906050277
v -0.44593395995517715 0.2231733328291704 0.07496353653285558
v -0.4320235889548686 -0.18925965132731995 0.012207894544404168
v -0.4361782536227142 0.1745106393274228 -0.09671775343010651
v -0.4334675720745098 -0.1250319400997522 0.013940579699657282
v -0.4030284381694227 -0.21276295310614562 -0.008693803099801459
v -0.41028638049103777 0.16258349994890806 -0.0970983436615657
v -0.38283838348192295 0.2177175258542557 -0.02318806479340347
v -0.4181250287889382 0.16281243778261786 -0.1313046289149412
v -0.4236545783716915 -0.10403887895351015 -0.03723890768445735
v 0.4508966575678942 -0.06258097628455697 -0.044275868451171305
v -0.4187163556894502 -0.16281998731924602 -0.12411463639546391
v 0.4349360405329279 -0.07692085850895888 -0.045082670522407525
v -0.4482643996804896 -0.18173411503303907 0.05092991450215663
v -0.41209874124218215 -0.10552417933099774 -0.1255856471429652
v 0.47591358866920497 0.08364981744152618 -0.03925969615658076
v -0.41035696329512794 -0.0019135453879862915 -0.037485309122247026
v -0.4338639682464131 -0.0841994880619898 -0.009820810503573429
v -0.410825690537745 -0.16254776655916622 -0.10079597839243416
v -0.41244442943584253 0.10599568629187237 -0.11837697369296851
v -0.4167332504429328 -0.18811658715961457 -0.13013188484059401
v -0.4239948524785752 0.1679395486621209 0.056641012771765434
v -0.40158425324613145 0.18257153081805783 0.09778929260855555
v -0.43300037269001296 -0.08578365992311349 -0.0010805011462779873
v -0.43591390946332714 0.004217141871906797 -0.010151703689266128
v -0.4281517261789247 0.13893327506311526 0.02966807131378701
v -0.43023956069113667 0.1916748121428725 0.02723495876152907
v -0.4002311760144019 0.08788047352249272 -0.12532035346988354
v -0.39262723260203497 0.08499719110031755 -0.13547108022323623
v -0.43706237674440057 -0.13595804504357495 -0.11117747648749503
v -0.38151115732113633 -0.21014293223565655 0.029831819779062903
v -0.40022754360396284 -0.04081449974723979 0.10376643007977793
v -0.4242519265991342 0.011419867479090597 -0.03677070440449953
v 0.43619359008616976 0.07131001438634471 -0.04726239511769626
v -0.4130353237174589 -0.193426886151875 0.08543560659576552
v -0.431919189084111 0.11098288817042254 0.03029316959236727
v -0.4078456173919984 -0.17524624091391924 0.09437280910801694
v 0.45495785066145655 0.024933684367108508 -0.060042695352951606
v -0.4187138582073557 0.08857476620805028 0.03151839265704494
v -0.43564038502987246 0.10445559843086363 0.013543728388582556
v -0.426350211605588 0.04870262154289521 0.0002183369142680705
v -0.46315948700112997 0.20956661936708168 -0.12023208401428277
v -0.42948140720244016 0.10684594811931965 0.07680814307147894
v -0.4230897909043388 0.1997332105607095 -0.025698889353119467
v -0.42819371702346204 0.19031896617685248 -0.0058394885504462375
v -0.41757606189187063 0.12720238029763856 -0.07581625759996251
v -0.4289579946962776 0.21972666738664268 -0.12444664307972143
v -0.42836581315075195 0.1630491436575529 0.08706069348294079
v -0.3872166062275125 -0.10049899055771702 -0.13923457072144937
v -0.39550725375680346 -0.087736001208807 -0.1338073933427961
v 0.45764236496799404 -0.06470458806920297 -0.037728519825782285
v -0.42228904683428714 0.18389387090305132 -0.04513884206643776
v -0.39318397149112677 -0.17288112945048412 -0.13621721656515237
v -0.4029447046708963 -0.21382830373247821 -0.019594252808073007
v -0.4299620689435321 0.1849737861571944 0.09198252626798206
v -0.4538389493592821 -0.1482736822979947 -0.09829612701740138
v -0.4339953566070555 0.17801782940255712 -0.021648744927504578
v -0.44406790948110375 -0.14117832293333457 -0.12384755683569602
v -0.4771235591054935 0.1823191794497815 0.06792936877254267
v -0.4326858020079331 -0.16322115648297483 0.08280020653228241
v -0.4246288212105004 -0.12633338647521578 0.036954508392569016
v -0.4289894562883149 -0.10298447355801271 0.02860520862346395
v -0.4289824320256081 0.17003099760321114 -0.03063871916064043
v -0.4247569380310919 -0.17985979132966132 0.022604703060514892
v 0.4774496470239311 -0.024805737854675273 -0.06243542901970038
v -0.42662348195112365 -0.13166871052567203 0.08366102915344573
v -0.4131109875128142 0.19192636290072407 -0.10925110811816477
v -0.4246016348753552 -0.1800731738595126 -0.038300999434063086
v -0.4124565156284269 -0.010993945483991081 0.0953708789104542
v -0.4296040272751849 -0.12660657222391808 0.03074834411066579
v 0.4623683707166095 0.06049196591048443 -0.06297732768999094
v -0.45255607648645346 -0.17713878807807037 -0.12664733651014257
v -0.43474580523579825 -0.1752038893086397 0.023344683317155595
v -0.4110463101207502 0.1094180878876094 0.09803554848549004
v -0.4382027289983868 -0.16937693655237282 0.004570576143698293
v -0.4368253244952175 -0.1641678342984893 -0.016047513198582775
v -0.4402653197409217 0.20753655141303246 0.06620472279552252
v -0.41722759027407963 -0.00821734078408978 0.08107358890258531
v -0.3813187326892253 0.07571621748899668 -0.14219491902218354
v -0.4831434666714042 0.20354879283422148 0.05851672527510121
v -0.45624133443741766 0.19528715840099092 -0.13527521134661918
v -0.41298201000314816 -0.1927690015258848 -0.09692819410880785
v -0.418771712851816 -0.1326898423954866 -0.07591842209258794
v -0.4350419531288045 -0.04551545611453579 0.012010730522052069
v -0.42545976123337065 0.05918934852718155 -0.00905342655369587
v -0.4267854429937564 -0.19858953442399085 -0.009761100906381447
v -0.42996570618498603 -0.1766428222504414 -0.034576288595256875
v -0.4326087661685413 -0.004477866422310697 -0.02199622400439628
v -0.4283981982171247 -0.10270877143300788 0.075074672632017
v -0.4640047293590141 0.2196859945093489 0.05600106702542812
v -0.3859613898038342 0.18288567669722086 -0.13529579587251467
v -0.43135255628961594 -0.16864754238755306 -0.024238474996651257
v -0.4425442086761717 0.1686465483763695 0.056344273066046974
v -0.4071758880353621 -0.20229105673354578 -0.05162429011340987
v 0.4364534743349525 -0.08032269373114408 -0.059200438953567344
v 0.4488291636511189 -0.06581209269017264 -0.055948800618927846
v -0.4162680498575872 0.213570711942675 0.003925729258833138
v -0.4584307855128139 -0.184178716694698 0.07779172876324139
v -0.4149177911108601 0.20750238779401764 0.03421261731472565
v -0.4816834849901709 -0.17276124595955217 0.06044410180805054
v -0.41292519951796813 -0.08637813607098077 -0.036744070210247184
v -0.4044727479109629 0.205691736712961 -0.037470538888794605
v 0.4417550388332293 0.06573515254974231 -0.05679237483710353
v -0.4290807558288588 0.007726963689578906 0.01665746144991744
v -0.4346760507393211 0.07690562829560654 0.001678335553284973
v -0.4295567843585402 0.0010193623850433542 0.028862427628838522
v -0.4162457074631301 0.008293090957926609 0.03058348427568412
v 0.47934328882006494 0.0629197233830231 -0.0558284733246872
v -0.42077202853997087 0.08916835867003278 0.08323926410055782
v -0.41242454166236453 -0.10903502455209693 0.09516095917115538
v -0.41164506863096606 0.0847285111113632 -0.036690310851370894
v -0.46293999656484036 0.18556498717965286 -0.11663311620191358
v 0.4757101491557909 -0.08980472708966894 -0.051056298963821196
v -0.4589754225096273 -0.13686467613403658 0.07008698670391042
v -0.47807123166280086 0.21036505295662422 0.07949234467988527
v -0.4156701391353477 -0.20245279988697876 0.028744570098911775
v -0.3665791085966459 -0.21989672541945293 -0.0170444025697715
v -0.3439780790626519 -0.14712725544737643 0.09528576041318848
v -0.39012600603792025 -0.2091625810125314 -0.03594378942206279
v -0.2941588021520841 0.0019760208637466144 -0.13360414352295338
v -0.3605303257907891 -0.1456724955682227 -0.1309666713827998
v -0.3199003686943992 -0.19937646117386232 -0.11476715905112518
v -0.39642895679341933 0.21955286040051097 0.017395449757317435
v -0.3779687871259579 0.03864581371953453 0.10764742879295477
v 0.47270641328225116 0.08669294960996266 -0.056178386046218005
v -0.311054453841682 -0.2144751736794114 -0.027653990045333064
v -0.27192264981004743 0.09074716139891537 -0.13187443615589234
v 0.463951478035987 0.060376434834113854 -0.03783904486225856
v -0.3929885769658611 -0.200659534951998 -0.11268603032793642
v -0.3887568711916256 -0.194705156916218 0.08568475204982108
v -0.27578316199741926 0.19748677283088573 0.1048147026351543
v 0.4469065739657774 -0.007954720579884063 -0.042625568262142435
v -0.2866907562069807 -0.21372717332289615 0.03561106264176522
v -0.29230332347786664 -0.20967114822065336 -0.03988791656849508
v -0.3407926008853957 -0.19994426494786813 0.08519603472314519
v 0.46273258844687404 -0.07574339856291351 -0.062055630512383136
v -0.3271041717364006 -0.014712675052982318 -0.13569257640345378
v -0.38611522716575153 0.21688505926631965 0.0324980994477881
v -0.2778953964037382 0.20476885650512636 -0.09594606261430706
v -0.3582767369421901 0.012693211504644473 -0.14244984550170198
v -0.26546651932847765 -0.21876110792771009 -0.011219253996507904
v -0.4067538003081175 0.2072854464678908 0.06584852057850649
v 0.2732198094272631 -0.07459413752411767 -0.06045216508885133
v -0.33905251331231445 0.21559903732840965 0.0039052350579195164
v -0.3306282274589072 0.20949152958579725 -0.06558287546419295
v -0.25849368018065066 0.01543534781216175 -0.13713129921739448
v -0.36093280410289685 0.07712729143611045 -0.14070862907151882
v -0.37300557815246493 -0.2065502919997266 -0.0888017132706401
v -0.3176551821204223 0.03859402023666546 0.11090370444186301
v -0.27689752417347757 -0.19610560692637471 0.10120599303307726
v -0.3030736971677215 0.12121639913792098 0.10904097630238502
v -0.33360690755043654 -0.08689535734964984 -0.13277368469268208
v -0.39559358052204335 -0.2138415032903636 -0.02662561888949794
v 0.43763355221844624 0.0807202613634566 -0.0588735025611256
v -0.37358017036903396 -0.1932995705304412 -0.12556993219201248
v -0.3539322048604217 0.03733258839897964 0.10750238050475952
v -0.33571836393661325 -0.21857647539915295 -0.008985824316373792
v -0.3108327787803271 -0.1359590472137198 0.10213695072230247
v -0.34951977254840594 0.19820315469860939 -0.12011961072332568
v -0.3803472914927926 0.2126465701603742 0.03662125979261478
v -0.3894183575061695 0.2030166294564709 -0.10673243007621627
v 0.43291416851036646 0.08353228446547735 -0.04760095668728562
v -0.3433821612591626 -0.06950521351710745 0.10484038253674652
v -0.29858939627028824 -0.07474676117714836 -0.13080641565169981
v -0.3743504894323341 -0.2179229933201408 0.013164766587585437
v -0.38838820512473826 -0.13883616244132277 0.09525016517924148
v -0.2589383251060944 0.13297911251330546 -0.12881042571213924
v -0.29539544496887893 0.1996748632126535 -0.1145587294695229
v -0.3901076746860793 -0.2057035812172234 0.05678529260358135
v -0.4073760474978049 0.21412544847461162 -0.009490701712730237
v 0.32896442285517924 -0.065920972906659 -0.06517253165447359
v -0.3246558559869842 0.08929784913979498 -0.1320329047119823
v 0.427458006486924 -0.08467338236954498 -0.05784166887096666
v -0.30057664932349515 0.21506166954276906 -0.027676799313663705
v -0.30734490737472786 0.22657226628299815 -0.07363991047256169
v -0.27852453434172514 -0.07518060174052649 0.12012214394004031
v -0.38625618536225265 -0.21590927349906125 -0.00026406943606821845
v -0.3348130936839351 0.20298562296716746 0.08967758047308584
v -0.31847935843177655 -0.03692912309472364 0.11013172292900578
v -0.3179926658735913 0.2079734379601254 -0.08094671885829846
v -0.30588477984780993 -0.16257784943704062 -0.1208787825761688
v -0.38537546874925155 0.1274688781717069 0.10078424083997264
v -0.35277989303512447 0.14163606967287162 -0.1308421281403136
v -0.385956812099984 0.19901597086135545 0.08949003548809147
v -0.2897217154779634 -0.20997295656358644 0.04119022565386281
v -0.3334730333700455 0.14283506141652294 0.0999340004598909
v -0.40493819583455026 -0.21312406265214548 0.014587365475963943
v -0.36876562463630014 0.2116976337341302 -0.03529642149682098
v 0.38518619221470574 0.08344259855563262 -0.06181865687192546
v -0.3372050301633218 0.2251762461968046 0.012427062259333228
v -0.1654274030606911 -0.21131828354472376 -0.04613952044141564
v 0.448378920882747 0.06428019421485193 -0.04871152875930048
v -0.3066771212841616 -0.2001005544224981 0.09042543379797766
v -0.07396807320920074 0.21471234510314396 0.04115642791995976
v -0.16275193511103359 -0.20255704955278392 -0.0703497970306867
v 0.3707267079780717 -0.06739090350852182 -0.053279773095448825
v -0.19624692452822595 -0.2145335717634176 -0.022825396127632937
v -0.17794113162296038 0.16567204419891576 -0.11922450211361268
v -0.1415775740907474 -0.21731690744222248 0.03716370428475027
v -0.12951613140382645 0.2075003495695693 -0.07188691298774234
v -0.22216394141489643 -0.2198369480170357 0.015074391466395675
v -0.3008994918180501 0.20187055928567266 0.09549020849181777
v -0.15492301514017126 0.034688903582816656 0.13303950152932334
v -0.20116995567863372 0.04332698903341517 0.13272434865555463
v -0.24062946733614693 -0.22238851147807415 0.010929187293457699
v -0.2646362687066001 -0.2132742970214563 -0.000991590073926199
v -0.15813768632581438 0.2102734996736772 0.07163079217204572
v -0.14945101511615422 0.11924171933088716 -0.11998534066508555
v -0.24069467500826228 0.21466669733854135 0.04143911723417998
v -0.18863227434554797 0.22108481737022037 0.005042347274996039
v -0.29170039304197193 -0.2139450642531407 0.007006508917994227
v -0.20526171044931912 0.21520010190182348 -0.012351112410079685
v -0.15874321116302537 0.01643813125174823 -0.1280651555441785
v -0.337097112052539 0.22249252804397918 -0.008999671555434657
v 0.3351263183825738 0.07140493006161282 -0.06767058793539392
v -0.19788469892313204 0.19872445416803666 0.11196825862594834
v -0.2614751895130516 0.21531986718170695 0.028986700628993934
v -0.22799194312071944 0.21870499538531873 0.028271168710525926
v -0.15829865263569903 -0.22202601140887715 -0.05035919085645777
v -0.20131183630635058 -0.2159107732018194 -0.010088308318793236
v -0.1794419868011099 0.19803712550845995 -0.11246479053270751
v -0.1881150013731892 -0.20723891307238748 -0.07241536648644122
v -0.16724643886579865 0.1644081668459697 0.11620269275470801
v -0.1601065567520869 -0.222846696680146 -0.024837377349533726
v -0.27814941370775736 -0.14643138000703146 0.11109128139438473
v -0.18905088207852372 -0.20992652866110192 0.0674427219543423
v 0.30492439974269914 0.06497036170467603 -0.061956584757719424
v -0.2611445705393596 -0.1975491727235617 -0.11690705422530943
v -0.2796808644777261 0.026084098145575753 0.12375920892945663
v -0.14878022577144728 -0.21680424159498343 0.01860177381138167
v -0.16577757223049372 -0.07000535215380296 0.1282961158747481
v -0.17712274425217456 -0.052817445974285976 -0.1320388689300277
v -0.17798541617500802 0.0012734137816045286 -0.13383435922746123
v -0.13866063565456116 0.20048947166089426 -0.10409945660753966
v -0.12038196102900689 -0.1975325098047353 -0.10758603461408016
v -0.12029824169943681 -0.070508852478205 -0.12744692474568947
v 0.16078343352134328 -0.02860135350691832 -0.010678047215648488
v -0.22298738897043546 -0.20901710450889824 -0.05195899445004104
v -0.2799974896579609 0.20918292523897292 -0.06696514552103822
v -0.237334701617005 -0.21775064389715365 0.002962587501864771
v -0.174372856602256 0.07837736228778314 0.12749203818693602
v -0.1653898442815337 -0.1510055584919292 0.11737119995368256
v -0.17818812795425648 -0.14438740742513406 -0.12139362081733107
v -0.19813885193485886 -0.053085538862932644 0.13203554559440692
v -0.21735656598021397 0.2111265118397366 0.04646553604132188
v -0.1971016296771535 -0.12979540786145394 0.12368109462932941
v -0.2616687847912765 -0.05829808741280172 -0.13548872813939475
v 0.1516982336018724 -0.05287651464413089 -0.05719473468503849
v -0.2293332506422644 -0.21690881644106125 -0.028994817099462535
v -0.10631911725341969 0.21860277489625385 -0.00012905688594297415
v -0.13885505837554435 -0.22499206760608537 0.027158776917216753
v -0.15876233453863564 0.2009935396841908 -0.10485097761323657
v -0.2765379522340492 0.20864437894370033 0.07630941496341614
v -0.2708856492603077 0.2220290796291751 0.0072134850206838595
v -0.19649698878773997 -0.1980728081502814 0.10969204430434557
v -0.17764553396971067 0.08819800628622586 -0.130577116170707
v -0.2298657521784827 -0.20958899621618649 -0.03205951949053001
v -0.17196437996809433 -0.2012597141807554 0.10518143785918416
v -0.2632100017220436 0.19877001423903556 -0.11737526717129647
v -0.22768981572085134 -0.21645532622087876 -0.05460450431364505
v -0.15059133063371738 -0.035966038613961124 -0.12585560941812185
v -0.17905376472467743 -0.19996798589678433 -0.11103725979536534
v -0.1571457941189462 -0.13183534714331105 -0.11739159584921359
v -0.17542413583765265 0.00743922608353546 0.13013865665076213
v -0.13927660863945956 -0.14401740505795982 0.12602227545978079
v -0.19740090345454847 0.1420692882016077 0.12267487322209397
v -0.12372325241632254 0.07179253970278275 -0.12709254200347783
v -0.2773875027038045 0.1266132259557331 0.1164609818393103
v -0.15653765824937405 0.2085760798000889 0.088427191904646
v -0.119376819460358 -0.20910746289758902 0.0880692156528971
v -0.255771645387634 -0.13257191373788055 -0.12825305904232098
v -0.18173949501372866 -0.215655495787282 -0.032017760178656963
v -0.13681511191066703 0.027920509412704984 0.13912759135671657
v -0.15315391270719025 0.22293527939354965 0.02357850813260932
v 0.1734355975332934 0.04618864104844764 -0.051031256061740735
v 0.15693339158412578 -0.16362288163891725 0.10165706854399678
v -0.013816837698783002 0.21155481620791725 -0.012422615768933842
v -0.13865845500517754 0.12360046902661204 0.1300077679863578
v -0.1040583034073091 -0.20454422299060313 -0.030421267315367786
v -0.02158804707010059 -0.2097301907912696 -0.03652078661496005
v -0.020068858925432087 -0.21727733050095402 -0.039967993047764515
v -0.01161957445368339 0.19865500767772432 -0.0938762751078636
v -0.07924947742930005 -0.21440783637738595 0.014193169871149134
v -0.05200280492613368 -0.1979862554459984 0.11901117787889542
v -0.08841017059647904 -0.22179267752465665 -0.045276858080077115
v -0.10380189346020191 -0.21099287652953957 -0.03008339747025037
v -0.12410490201917385 -0.21296172383526682 0.0522378268567963
v -0.028023957567073043 0.20101773318421867 0.11446029924522133
v 0.1878744831351178 -0.008315556372865168 -0.025385525548288986
v -0.12295562714242853 0.22676092949953383 0.08114127694271389
v -0.12025372898122932 -0.1336724923342897 -0.1196540629985404
v 0.18570828663344285 -0.00694180245085306 -0.011438020059002208
v -0.029663534860925267 0.22087149070030723 0.022745136993116675
v -0.17118907797615318 -0.21017705385064153 -0.026101847462464276
v 0.007760766607258329 -0.1984909238458232 -0.09494252919197402
v 0.019790312847912883 -0.21791941165942788 0.06177063451779162
v -0.051228578411525005 -0.22647403777721256 0.02634985361179792
v -0.010541063142384066 -0.01882104106840674 -0.11510326880711673
v -0.023641048543869225 0.04588705749344381 0.1377140916299402
v -0.06399904452458938 -0.02342085459831628 0.1430020063066184
v -0.04736725277059445 -0.22311927805968834 0.030012438047246567
v 0.17780886471132606 -0.16245870972858337 0.05581793153433462
v -0.014486481681154129 0.09367188570004364 -0.11172407548340942
v -0.05328844523907633 0.12862963212658904 0.13261056039898544
v -0.03831504802586089 0.21143790902062407 0.05904980631755366
v -0.11456814337313426 -0.017125970342867596 -0.12998356425047047
v -0.07330225241015137 -0.22242761192228788 0.037487075106599405
v -0.03027398431028283 0.12378013547037602 0.12894240802005427
v 0.18018925134191421 0.1487148954579921 0.016153732179881402
v -0.06451569921191125 0.22037678913695288 0.036568956505302494
v -0.012799187098344378 0.1142924706529992 0.13525282887201115
v -0.1552140932133701 0.2212086455757517 0.020207749161893423
v -0.08546549376240947 -0.20977319671961225 -0.04350989900962333
v -0.1386934378284745 0.19793708799510953 0.11686149945310562
v -0.03367396867082939 0.1518674411097103 -0.10971665999719706
v -0.035753683344946885 -0.202917377517522 0.11292101979037258
v 0.1739793829076146 0.1665962080297066 -0.03063075921606148
v 0.04504710704711434 0.2225929829414727 0.010892200694735312
v -0.05311197135756168 0.21529373555101286 -0.0015814398467886223
v -0.02318586968943931 -0.06042417636964002 0.13693665966619817
v -0.13933467279246448 -0.21602698241119245 0.04814944502318516
v -0.2060440540162055 -0.21918653254894577 0.0011296309592323632
v -0.03418093333764627 -0.2063640433533845 -0.07033797904526558
v -0.023543714825578155 -0.2193979788307917 -0.013905967145782596
v -0.12111412217834877 0.13932855200528227 -0.12018295385906297
v -0.14124121711008103 -0.0783175362711058 0.13524808582787207
v -0.05438926482536449 0.19898788367768647 0.11936930438371252
v -0.03461688881755881 -0.19795856964316325 -0.09965254532580743
v 0.18179990109214395 0.15794181078098413 0.03117404721226703
v -0.011979570809405371 0.19782494136552817 0.1198911689498103
v -0.07999278503161589 -0.09040221843890567 -0.1217426710714078
v 0.17247060329248864 -0.09460365852515512 0.04243012814853804
v -0.08989016396227756 -0.04222958961320447 -0.12357701595808156
v 0.14938633890915298 0.052347497452775796 -0.058717167095290165
v -0.074083360743883 -0.21528190890672927 -0.014109390051459968
v -0.03417418055905741 0.07465735891548965 -0.12011440251906047
v -0.06613794765574332 -0.030896100246454786 -0.12551278903635016
v -0.03609556211372966 -0.11690223876156208 0.12893789270249068
v -0.05296983932256438 -0.12948400544137537 0.13232407662181755
v 0.026930019717900988 -0.21685199952877354 0.022712605255272498
v -0.09029444538248238 0.037637139039844184 -0.12709148923002855
v -0.0759935310980609 -0.20249351652171055 -0.06416397726511004
v -0.03637075630282788 0.1987979650890249 -0.10040285581149742
v -0.014535544764373354 -0.10880040401827215 -0.10962350381634708
v -0.12101907090766101 0.19809688591847616 -0.10796770165206374
v -0.10808509085216594 0.210122954238555 0.07376642901655377
v -0.13131375266453 -0.19785740291978626 0.11554731339938432
v 0.007188217627924209 -0.2088921764679639 -0.040569863045303925
v -0.15882228274634447 0.2032847204578843 0.10771000486641816
v -0.11657900203963073 0.21053890314552393 -0.01746002649698547
v -0.05489194817605564 0.0662641159325456 0.14023941829418696
v -0.041877869983256544 0.0774766478749774 0.13484769956187928
v -0.032901700487666496 -0.01569755051128623 -0.12219691719548655
v -0.07176105316500597 -0.21682959242602892 0.026846109621839486
v 0.15873800454462828 0.09302188740590298 -0.08998394274876187
v 0.007289945912527851 -0.21342327451170273 -0.008750495165119068
v -0.024361552585596302 -0.21062772409270578 -0.01883207224693279
v -0.05384665096147445 -0.06943307046591933 0.13978510075139575
v 0.18414214364512904 0.15501845487727617 0.01954466471197434
v -0.14755296093497883 -0.20109431342324136 -0.10313273369665253
v -0.031818366283069 -0.12225747083190097 -0.11412623269572335
v -0.0729246398145158 0.08406206559498029 -0.12186309720582393
v -0.06123181710995235 0.0381928235368419 -0.12449615737967278
v -0.09920862786196105 -0.2198925796282086 8.417898503189011e-05
v -0.08415721779506297 -0.21754574584051586 0.01089983516342408
v -0.03899208516427283 -0.01345485468270249 0.13790823782863013
v 0.08512695312935037 -0.22093527229183083 -0.03268838723833478
v 0.08497207206458168 0.20970000871732294 -0.04109768499744519
v -0.10610796214907842 0.2078228166321531 0.09080058012396983
v 0.10615262314160678 0.02602568399985132 -0.10540610290679543
v 0.08417700159517383 -0.21362880938186812 -0.0038623525612801954
v 0.06273398131100971 -0.0653620256633984 0.13761862455991306
v 0.008847767475475776 0.11340141266496921 -0.11155296447805184
v 0.12748632464024412 -0.00197101483299612 -0.062207283718146725
v 0.02836506243634529 -0.1102677109240465 0.13428479903463306
v 0.08487460206717279 0.04594578286088079 0.13701195824203827
v 0.11421982335027625 0.008994074503323426 -0.10191266845240828
v 0.05389267965522759 -0.011829556871847044 0.14085026872582793
v 0.053241694929587635 -0.22045010138954046 0.05370766201714346
v 0.06264593052227863 0.06570157301074663 0.1376344386713749
v 0.14207870099405562 0.03994937915788234 0.132179015803887
v 0.12988307620302442 0.2165431685533892 -0.0003659321134575795
v 0.09227183781607884 0.19952837769988735 -0.0812033276789025
v 0.026236244610437498 -0.21465682468860942 0.06488687076803103
v 0.09255121072139838 0.14234009788356403 -0.0913497413008154
v 0.13192329595697516 -0.21144226102127028 -0.0008823077907041781
v 0.11865014981927602 -0.0407348941434483 -0.10117121357305577
v -0.013812795561881808 -0.06774028551177988 0.13967519531794145
v 0.12264175023739976 -0.20960061119824375 -0.037042286062089605
v 0.03460318544198282 -0.22104129966428251 0.02250893625068102
v 0.059995905330767596 -0.19488047387167012 0.11984678246851063
v 0.05962059445304746 -0.22078366627050516 0.018438711946666294
v -0.019440687730234718 -0.20103033407240473 -0.09265521461870858
v 0.1706500595391206 -0.09169692516564473 -0.05612115856244493
v 0.1048599176307623 0.19317139122128127 -0.08514484268744404
v 0.10352262912772248 -0.14162052043672113 -0.09294990617588914
v 0.08819769177806924 -0.21010287116757545 -0.03386976009484614
v -0.013335557853271118 0.023724134123285865 0.1425691444421003
v 0.08588489248626807 -0.03255742435232345 0.13800450138290027
v 0.1458208300070386 0.21264601299171795 0.04233301027604579
v 0.09712634848975032 0.22225936843904892 0.051472270133606945
v 0.096176274890028 0.033940553974296725 -0.1026264093470986
v 0.00702095137575004 -0.03343035854360599 -0.11797334679243146
v 0.0807223087707939 0.14058500120960024 -0.09682732289308445
v 0.0869347746370378 0.1948228111654429 0.11703654828217086
v -0.09857781883486677 0.21437362530264728 -0.014041024738434528
v 0.06326832770755086 -0.13452170814902903 0.13000998415795129
v 0.006371366673560308 -0.12273484963157555 -0.11011843327118302
v 0.05204493182008041 -0.22063709487553262 0.03371885897718575
v 0.1418186051161946 -0.019163767851303807 0.13264480715698915
v 0.08239985354142598 0.22345225546436878 -0.05396818438062022
v 0.12944548332713157 0.06450820358618733 -0.08412255985168472
v 0.10606674876829114 -0.046760692195844056 -0.10404003775320815
v 0.12993843488109358 0.08765642186587469 -0.08208491406675068
v 0.06767506466912276 0.212132289349095 -0.014854789959575112
v 0.1357756066505421 0.09127227094624824 -0.09521310244740082
v 0.12499048339629448 -0.21781525087050385 0.06581076813830006
v 0.12753506035408846 0.2121393342142856 -0.002818189502020327
v 0.12624110624335783 0.22242051460463655 0.021986187765974
v 0.08535558456311887 -0.2235266705886589 -0.005770202421113788
v 0.11658917684172154 0.2213065036590295 0.04027502027450426
v 0.10371306401000469 0.21296809831169622 0.06890746373790678
v 0.1577623018120331 0.19478551873886876 0.06976589588424603
v 0.007306264461329259 0.05204846651625644 -0.11679438180902242
v 0.1385303229125484 -0.17217725279834495 0.11802076954925442
v 0.04741223801559069 0.22435884033201492 0.03656631880766399
v 0.1303905108724076 -0.22108437747555365 0.02229333430633283
v 0.07293541778127755 0.08467467923877582 0.13171231191483085
v 0.039259320742882964 0.22469411950696247 -0.05478010773316604
v 0.15639118971213783 0.16982109460118955 0.10109563661767415
v -0.00916741401921145 -0.19716212656218218 0.12113967613035284
v 0.13943974765942935 0.10575893171837851 0.12759661783721118
v 0.08652424953234872 -0.19503375407518483 0.11795311750581955
v 0.08328095414423431 0.05312056972432863 -0.10623691579405571
v 0.08552103436929703 -0.1071699954759959 0.13208484296146528
v -0.060944955220507746 0.21463594624927418 0.05409749113166064
v 0.10826796815374085 0.21714021977769313 0.06644392835309056
v 0.0823151169684615 -0.02605583588194273 -0.10724903022769584
v 0.08123549190481216 0.1965167480454642 -0.08745137680213372
v 0.0052553318395014426 0.19813202815708775 -0.09663508088461226
v 0.07378017350179078 -0.14069688656909274 0.12427869665563784
v 0.12267108035982499 -0.19738380483058449 0.11305953901146185
v 0.11275511151769047 0.21828417552496487 0.05547973586749305
v 0.11851438022767125 0.009828987923908366 -0.08065665882925262
v 0.17190522011128428 -0.17486994472497977 0.033001886935814156
v 0.09144810378389523 -0.19854888513852248 -0.0806862838807772
v 0.16274432402462402 -0.20298371037031362 0.014156215718823636
v 0.04174562462377396 -0.22170276577158682 0.01116932185047068
v 0.13123025996128646 -0.21706491501847278 0.008201855068347658
v 0.10535566463357426 -0.20927558362207646 0.0951248241082879
v 0.11544754773186428 0.21883158305733627 0.010035514766387591
v 0.033559128535791904 0.20945985101827255 -0.04525529142425046
v 0.11602696706275728 -0.2237732468437156 0.05570226645465669
v 0.07117580583195082 0.19946358399563738 0.11643973619214126
v 0.2048460344942078 -0.07122702207778667 -0.07844367978302455
v 0.042025488597152716 -0.21716796154453238 0.007486004920047012
v 0.007036086741277314 -0.22359536357680573 -0.02205960746578191
v 0.11476154571469355 -0.21367616139130147 0.07103756390999091
v 0.10510960523159507 0.10981255425285597 -0.09816247849910746
v 0.07756717592995654 -0.08782813712538147 -0.1039666460399582
v 0.08918052386322539 -0.22676092949953383 0.03805811418727738
v 0.04541744040182427 -0.22243269426370307 -0.00939727771866021
v 0.08087303225349562 -0.19609288320297238 -0.08669597365626029
v 0.043213027202600784 0.2064398045349967 -0.06388930716743954
v 0.157875581519062 -0.02050039854059899 0.11808220699324837
v 0.16671358738862374 -0.1980439102043613 0.040556559511822174
v 0.09488587731799691 -0.08125772767714097 -0.09890621435856588
v 0.1286010265673635 -0.09279956546849283 -0.09564352657641542
v 0.07692617713772609 -0.20232899905469012 0.11174316860059388
v 0.12733619538575935 -0.05917778695870715 -0.08734404907012847
v 0.0741276228103177 -0.038055719596246096 0.13474069038256134
v 0.08551116254408875 0.09346032015740306 0.13314878374979766
v 0.06096781222875036 0.14528238107586422 0.12829826240644054
v 0.11156223621314743 0.2089177553677044 0.09290646084595035
v 0.046945958133286614 0.215524487221861 0.025281475584055583
v 0.17920530113514654 -0.038724765401495526 0.005447383240828791
v 0.17351710881039362 -0.16811475505090928 0.05954710115825121
v 0.17945460387690182 -0.039113573596263274 0.017763171035250405
v 0.10745566646210392 0.21533415398667813 0.03322395250204374
v 0.3302252170464369 -0.08461379160661807 -0.05599928282621761
v 0.17553649755332457 0.16696605622079297 0.0325929208342569
v 0.11341161340182415 -0.19921842967211345 -0.08094850421340657
v 0.13297991171793744 0.20695262091136 -0.051076201659663326
v 0.17328541752031412 0.18490755061723788 0.04955158086515521
v 0.18451402372910175 0.10739498044505529 -0.025403853551949424
v 0.18515709889183596 -0.10643362459027994 -0.0005930616063432696
v 0.14902195158758602 -0.19789554409446855 0.08622461300484817
v 0.14794372469547723 -0.18457823444813945 -0.07803848701321311
v 0.18567937896411046 0.10523339966309526 7.727335112332062e-05
v 0.14266188565566307 -0.09196082886994601 0.12861995415509025
v 0.15858973896055173 0.16416302730307447 -0.08085278207258034
v 0.1737361874744615 0.16432056880871787 0.06999110004569344
v 0.17486274415257363 0.16835419112548503 0.06022002094677825
v 0.1694165367697611 -0.05702517275697078 0.07195656509429563
v 0.16266109432872367 0.18728493439849794 -0.04729555316638792
v 0.17415452101823103 0.02167378358335147 0.03338393888139682
v 0.1827582651541677 -0.10755344362247579 -0.024287634879631998
v 0.22137730731582228 0.06501570519018184 -0.07308334365190665
v 0.16281989045406098 0.08406311270161894 -0.07179627416445328
v 0.17243018128483756 0.04524251544497626 0.04167736913529825
v 0.17614317874176322 0.16658877939211522 0.0009226795863415266
v 0.16035571028711149 0.029158010034346066 -0.011513693560517575
v 0.17379538164929542 -0.09908431391821725 -0.024128662703695264
v 0.17411344120865968 -0.08436439634438518 0.0012369012469427183
v 0.1709277433813835 -0.17631691529392024 -0.036146729856617335
v 0.13593227932634155 0.2119416645223921 0.0595530166134807
v 0.16812693137681123 -0.1689729324827835 0.07355806917458185
v 0.17132975557826957 0.09085858600500482 -0.05690179655018786
v 0.14577675529444134 0.08091563956672937 -0.08431750945769766
v 0.12582513138418816 0.06968412226169186 -0.08648908610281598
v 0.25633941138367333 -0.0659463953886215 -0.06511964832775104
v 0.17016271023277707 -0.18381177742625848 0.06198161194057819
v 0.1492296770156437 -0.2141127631335241 0.04378793240758795
v 0.14447566146569402 -0.2027985908128162 -0.044005137373787834
v 0.17989912186486645 0.16550522126114553 0.004183843194048482
v 0.1872170992860157 0.03855469389771752 -0.0017548734707050172
v 0.16350587462010968 -0.035297940269568645 0.10157264279147271
v 0.15708046102953044 -0.12432111395941228 -0.0862703520432477
v 0.16399514289203798 0.08632020790093092 0.09510907069804668
v 0.15346464019050776 0.21088412230596687 0.025951952092170574
v 0.17941974076372025 0.1607837431872501 0.05543926502122762
v 0.17423827586259588 0.18998985279129466 0.027405510173606627
v 0.17699129126510893 0.008089257585087578 -0.001520061924949228
v 0.14125713368040793 0.19006881775456344 -0.0794558322191206
v 0.1600742894887731 -0.1960082494382193 0.001093989224093872
v 0.12681100444556304 -0.09060518425225701 -0.06297348756917534
v 0.1745460138838325 0.09933495725564254 -0.026276550374012053
v 0.1590994899208753 -0.09313336343849506 -0.08900897361129013
v 0.1782182145675728 0.16596611503022118 0.0411788184919525
v 0.17855506267408372 -0.166143962097185 0.01076506561507953
v 0.13997702694941416 -0.08437827160368784 -0.08360761026158797
v 0.12610464785326048 -0.06576278970082611 -0.08286130683300698
v 0.16852373984046654 0.16672704735472405 0.07364262142619077
v 0.1752850377437124 0.07077594145739578 0.00191067341112219
v 0.16146575404254682 -0.040047730909974655 -0.04238987563789726
v 0.1751634318702986 0.10255016238181194 -0.00689762196380652
v 0.16180521683919113 0.03935622713714232 -0.042372198372384894
v 0.16265301686649125 -0.16602379155775213 -0.06659811155369882
v 0.15881501657585506 0.19898961155828035 -0.001546668089358997
v 0.13768694970937845 0.17554009932331302 0.11670524903635329
v 0.15830996286833077 0.08407987229064741 -0.0812803299086894
v 0.15140730924135481 -0.2095988427716256 0.03322956172753801
v 0.15371186571356632 0.057807689586861194 0.12049867550155077
v 0.1724015450743801 -0.05174551358637183 -0.05442674856132165
v 0.17251518506118102 -0.15503927926981745 0.06944945576483251
v 0.17801075666539456 -0.18143824095966257 0.03055206518958872
v 0.1765002303268609 -0.16323750946234344 0.04202868427763287
v 0.1805873695092235 -0.07493661504409128 0.03309926650102335
v 0.1280981987455455 0.19650122154042637 0.11053459652659142
v 0.1780289696968963 -0.03027638423749082 0.04370520411650529
v 0.17417402738506016 -0.16870886733572715 0.0025721098276665355
v 0.18265881406680995 -0.1580654081201015 0.01978583250795767
v -0.46253940655455256 -0.1671257006981791 0.06293682926389613
v -0.4218081150663579 -0.16369214562810622 0.05177764040089429
v -0.47709107776675663 -0.14576283210565844 0.07785753837689435
v -0.4365553286544978 -0.17808766863498895 -0.09584923893905363
v -0.1514170380941181 -0.20327331894312203 -0.0340047565115404
v 0.17762003453888553 -0.042841118791625415 -0.023469565438809483
v 0.17755611127416226 0.04226236103201031 -0.024840671919740424
v 0.17324960978558768 -0.0018111457836502629 -0.0067958700603594595
v 0.13974218841957264 0.06880383780512557 -0.07488197328099234
v 0.1263250317971596 0.09020663225998429 -0.06390793044740324
v 0.14642456366837642 -0.06733595978591461 -0.07319556495502585
v 0.12700681419981763 -0.08891880142749568 -0.07688779686633102
v 0.1656606532622802 -0.08426679746981941 -0.07091742084202506
f 49/49 81/81 100/100
f 100/100 81/81 74/74
f 136/136 63/63 192/192
f 150/150 208/208 18/18
f 49/49 100/100 208/208
f 19/19 58/58 192/192
f 100/100 18/18 208/208
f 95/95 58/58 18/18
f 18/18 100/100 95/95
f 150/150 18/18 58/58
f 210/210 49/49 208/208
f 192/192 63/63 156/156
f 192/192 58/58 136/136
f 69/69 100/100 74/74
f 175/175 182/182 205/205
f 202/202 205/205 251/251
f 157/157 228/228 177/177
f 219/219 144/144 161/161
f 212/212 175/175 177/177
f 150/150 58/58 19/19
f 255/255 177/177 175/175
f 177/177 255/255 294/294
f 192/192 156/156 144/144
f 182/182 19/19 189/189
f 202/202 175/175 205/205
f 189/189 144/144 184/184
f 228/228 204/204 212/212
f 175/175 202/202 255/255
f 210/210 208/208 212/212
f 192/192 189/189 19/19
f 251/251 184/184 219/219
f 205/205 182/182 189/189
f 228/228 212/212 177/177
f 212/212 204/204 210/210
f 157/157 177/177 294/294
f 189/189 192/192 144/144
f 251/251 205/205 184/184
f 184/184 144/144 219/219
f 270/270 255/255 202/202
f 205/205 189/189 184/184
f 182/182 208/208 150/150
f 150/150 19/19 182/182
f 212/212 208/208 182/182
f 144/144 156/156 161/161
f 212/212 182/182 175/175
f 251/251 272/272 202/202
f 251/251 219/219 176/176
f 230/230 255/255 270/270
f 257/257 268/268 291/291
f 290/290 230/230 270/270
f 202/202 272/272 270/270
f 272/272 284/284 268/268
f 284/284 272/272 281/281
f 294/294 230/230 292/292
f 229/229 290/290 257/257
f 267/267 304/304 249/249
f 340/340 375/375 249/249
f 242/242 292/292 249/249
f 375/375 242/242 249/249
f 294/294 292/292 157/157
f 229/229 299/299 304/304
f 270/270 257/257 290/290
f 267/267 290/290 229/229
f 267/267 230/230 290/290
f 373/373 268/268 284/284
f 299/299 229/229 352/352
f 251/251 176/176 281/281
f 157/157 292/292 242/242
f 272/272 268/268 270/270
f 458/458 569/569 456/456
f 249/249 304/304 340/340
f 291/291 268/268 373/373
f 294/294 255/255 230/230
f 407/407 436/436 569/569
f 352/352 257/257 291/291
f 375/375 228/228 242/242
f 267/267 292/292 230/230
f 257/257 352/352 229/229
f 272/272 251/251 281/281
f 249/249 292/292 267/267
f 268/268 257/257 270/270
f 304/304 267/267 229/229
f 326/326 299/299 352/352
f 499/499 356/356 337/337
f 325/325 334/334 378/378
f 384/384 365/365 364/364
f 491/491 436/436 516/516
f 392/392 326/326 384/384
f 377/377 326/326 392/392
f 334/334 325/325 337/337
f 401/401 414/414 457/457
f 377/377 378/378 330/330
f 337/337 356/356 334/334
f 356/356 314/314 334/334
f 377/377 330/330 304/304
f 334/334 353/353 330/330
f 392/392 346/346 325/325
f 451/451 302/302 516/516
f 384/384 352/352 365/365
f 414/414 346/346 364/364
f 414/414 424/424 346/346
f 424/424 337/337 325/325
f 457/457 364/364 342/342
f 314/314 353/353 334/334
f 365/365 352/352 291/291
f 377/377 299/299 326/326
f 330/330 340/340 304/304
f 352/352 384/384 326/326
f 457/457 414/414 364/364
f 365/365 310/310 364/364
f 342/342 364/364 310/310
f 365/365 373/373 310/310
f 513/513 302/302 451/451
f 384/384 364/364 392/392
f 353/353 340/340 330/330
f 378/378 377/377 392/392
f 378/378 334/334 330/330
f 291/291 373/373 365/365
f 377/377 304/304 299/299
f 346/346 392/392 364/364
f 325/325 378/378 392/392
f 424/424 325/325 346/346
f 424/424 414/414 404/404
f 499/499 480/480 356/356
f 433/433 417/417 495/495
f 566/566 498/498 458/458
f 566/566 431/431 498/498
f 575/575 480/480 431/431
f 497/497 467/467 461/461
f 575/575 431/431 566/566
f 454/454 406/406 497/497
f 480/480 499/499 454/454
f 406/406 337/337 424/424
f 467/467 433/433 495/495
f 497/497 398/398 467/467
f 569/569 491/491 545/545
f 451/451 516/516 461/461
f 499/499 337/337 406/406
f 495/495 459/459 467/467
f 461/461 467/467 459/459
f 406/406 424/424 404/404
f 425/425 402/402 497/497
f 431/431 480/480 454/454
f 468/468 451/451 459/459
f 407/407 498/498 402/402
f 425/425 497/497 461/461
f 398/398 433/433 467/467
f 497/497 404/404 398/398
f 468/468 459/459 495/495
f 498/498 454/454 402/402
f 454/454 498/498 431/431
f 497/497 406/406 404/404
f 457/457 417/417 401/401
f 499/499 406/406 454/454
f 402/402 425/425 407/407
f 404/404 414/414 398/398
f 417/417 433/433 401/401
f 398/398 401/401 433/433
f 398/398 414/414 401/401
f 569/569 458/458 407/407
f 407/407 425/425 436/436
f 497/497 402/402 454/454
f 461/461 459/459 451/451
f 516/516 425/425 461/461
f 458/458 498/498 407/407
f 425/425 516/516 436/436
f 566/566 456/456 449/449
f 456/456 545/545 559/559
f 543/543 302/302 533/533
f 543/543 491/491 302/302
f 491/491 569/569 436/436
f 456/456 569/569 545/545
f 559/559 449/449 456/456
f 545/545 543/543 559/559
f 559/559 543/543 520/520
f 458/458 456/456 566/566
f 543/543 545/545 491/491
f 516/516 302/302 491/491
f 3/3 75/75 9/9
f 166/166 9/9 105/105
f 209/209 173/173 24/24
f 209/209 24/24 117/117
f 9/9 166/166 3/3
f 147/147 79/79 75/75
f 185/185 209/209 117/117
f 172/172 146/146 153/153
f 173/173 209/209 198/198
f 282/282 172/172 153/153
f 153/153 193/193 282/282
f 153/153 198/198 194/194
f 224/224 193/193 285/285
f 190/190 178/178 163/163
f 273/273 146/146 172/172
f 163/163 166/166 198/198
f 146/146 273/273 190/190
f 3/3 147/147 75/75
f 198/198 209/209 194/194
f 207/207 178/178 190/190
f 148/148 147/147 207/207
f 207/207 147/147 178/178
f 146/146 198/198 153/153
f 105/105 173/173 166/166
f 190/190 273/273 297/297
f 193/193 194/194 285/285
f 173/173 198/198 166/166
f 3/3 166/166 163/163
f 207/207 190/190 297/297
f 254/254 148/148 207/207
f 148/148 181/181 147/147
f 146/146 163/163 198/198
f 163/163 178/178 3/3
f 147/147 3/3 178/178
f 269/269 254/254 297/297
f 190/190 163/163 146/146
f 193/193 153/153 194/194
f 194/194 209/209 185/185
f 297/297 254/254 207/207
f 261/261 386/386 317/317
f 287/287 317/317 289/289
f 332/332 287/287 293/293
f 262/262 317/317 287/287
f 297/297 273/273 258/258
f 293/293 287/287 239/239
f 289/289 269/269 258/258
f 259/259 273/273 172/172
f 239/239 258/258 259/259
f 285/285 247/247 224/224
f 289/289 317/317 386/386
f 262/262 287/287 332/332
f 269/269 297/297 258/258
f 288/288 269/269 289/289
f 293/293 239/239 234/234
f 282/282 234/234 239/239
f 261/261 317/317 387/387
f 234/234 224/224 278/278
f 351/351 260/260 371/371
f 386/386 288/288 289/289
f 260/260 234/234 278/278
f 351/351 293/293 234/234
f 260/260 278/278 371/371
f 282/282 259/259 172/172
f 224/224 282/282 193/193
f 259/259 282/282 239/239
f 258/258 273/273 259/259
f 234/234 282/282 224/224
f 351/351 234/234 260/260
f 247/247 278/278 224/224
f 254/254 269/269 288/288
f 289/289 258/258 287/287
f 287/287 258/258 239/239
f 324/324 370/370 379/379
f 367/367 389/389 363/363
f 388/388 293/293 351/351
f 332/332 293/293 367/367
f 324/324 379/379 362/362
f 362/362 329/329 324/324
f 329/329 362/362 341/341
f 399/399 308/308 466/466
f 367/367 363/363 359/359
f 317/317 357/357 387/387
f 357/357 262/262 332/332
f 388/388 367/367 293/293
f 434/434 321/321 370/370
f 370/370 354/354 387/387
f 362/362 388/388 341/341
f 429/429 324/324 329/329
f 371/371 369/369 351/351
f 321/321 419/419 370/370
f 450/450 329/329 399/399
f 308/308 329/329 341/341
f 341/341 369/369 308/308
f 389/389 367/367 388/388
f 357/357 317/317 262/262
f 429/429 434/434 324/324
f 389/389 379/379 363/363
f 332/332 359/359 357/357
f 359/359 332/332 367/367
f 399/399 329/329 308/308
f 369/369 341/341 351/351
f 387/387 354/354 261/261
f 370/370 419/419 354/354
f 389/389 362/362 379/379
f 388/388 351/351 341/341
f 387/387 357/357 363/363
f 387/387 363/363 379/379
f 359/359 363/363 357/357
f 434/434 370/370 324/324
f 429/429 329/329 450/450
f 362/362 389/389 388/388
f 370/370 387/387 379/379
f 489/489 321/321 434/434
f 434/434 429/429 464/464
f 486/486 434/434 464/464
f 489/489 434/434 486/486
f 466/466 465/465 399/399
f 119/119 116/116 103/103
f 149/149 125/125 164/164
f 6/6 28/28 81/81
f 187/187 27/27 93/93
f 216/216 123/123 149/149
f 117/117 35/35 27/27
f 28/28 141/141 81/81
f 49/49 6/6 81/81
f 168/168 125/125 6/6
f 123/123 53/53 125/125
f 149/149 123/123 125/125
f 210/210 168/168 6/6
f 128/128 70/70 196/196
f 187/187 93/93 128/128
f 116/116 106/106 141/141
f 125/125 186/186 164/164
f 28/28 6/6 103/103
f 196/196 71/71 123/123
f 196/196 70/70 71/71
f 196/196 34/34 128/128
f 117/117 27/27 187/187
f 34/34 196/196 240/240
f 170/170 196/196 123/123
f 185/185 117/117 187/187
f 210/210 6/6 49/49
f 168/168 186/186 125/125
f 170/170 123/123 216/216
f 214/214 128/128 34/34
f 214/214 187/187 128/128
f 28/28 116/116 141/141
f 103/103 116/116 28/28
f 244/244 300/300 216/216
f 279/279 168/168 204/204
f 170/170 240/240 196/196
f 243/243 149/149 164/164
f 201/201 171/171 265/265
f 206/206 265/265 165/165
f 165/165 187/187 206/206
f 228/228 279/279 204/204
f 238/238 200/200 240/240
f 216/216 280/280 240/240
f 168/168 279/279 186/186
f 300/300 280/280 216/216
f 170/170 216/216 240/240
f 187/187 214/214 171/171
f 185/185 165/165 194/194
f 235/235 164/164 186/186
f 244/244 216/216 149/149
f 271/271 235/235 186/186
f 285/285 194/194 165/165
f 279/279 271/271 186/186
f 214/214 34/34 200/200
f 206/206 201/201 265/265
f 214/214 265/265 171/171
f 235/235 243/243 164/164
f 187/187 171/171 206/206
f 187/187 165/165 185/185
f 200/200 34/34 240/240
f 210/210 204/204 168/168
f 171/171 201/201 206/206
f 236/236 240/240 280/280
f 149/149 243/243 244/244
f 316/316 372/372 233/233
f 220/220 336/336 244/244
f 338/338 236/236 300/300
f 247/247 285/285 278/278
f 226/226 165/165 265/265
f 276/276 240/240 236/236
f 316/316 295/295 395/395
f 295/295 279/279 375/375
f 295/295 233/233 279/279
f 276/276 236/236 319/319
f 462/462 235/235 271/271
f 336/336 300/300 244/244
f 276/276 238/238 240/240
f 432/432 200/200 238/238
f 300/300 236/236 280/280
f 395/395 295/295 375/375
f 200/200 432/432 376/376
f 235/235 462/462 220/220
f 376/376 478/478 226/226
f 226/226 214/214 376/376
f 242/242 228/228 157/157
f 226/226 265/265 214/214
f 220/220 243/243 235/235
f 331/331 462/462 271/271
f 319/319 236/236 338/338
f 233/233 271/271 279/279
f 375/375 279/279 228/228
f 316/316 233/233 295/295
f 376/376 214/214 200/200
f 244/244 243/243 220/220
f 165/165 278/278 285/285
f 165/165 226/226 278/278
f 233/233 372/372 271/271
f 466/466 308/308 369/369
f 452/452 338/338 300/300
f 466/466 369/369 490/490
f 353/353 314/314 375/375
f 521/521 550/550 509/509
f 319/319 338/338 452/452
f 500/500 375/375 314/314
f 469/469 336/336 220/220
f 478/478 490/490 226/226
f 344/344 345/345 276/276
f 331/331 271/271 372/372
f 432/432 303/303 376/376
f 316/316 395/395 372/372
f 238/238 276/276 345/345
f 490/490 278/278 226/226
f 478/478 376/376 303/303
f 395/395 331/331 372/372
f 452/452 300/300 336/336
f 469/469 427/427 336/336
f 345/345 432/432 238/238
f 371/371 278/278 369/369
f 490/490 369/369 278/278
f 356/356 500/500 314/314
f 448/448 331/331 395/395
f 345/345 477/477 432/432
f 344/344 477/477 345/345
f 353/353 375/375 340/340
f 500/500 356/356 480/480
f 319/319 344/344 276/276
f 395/395 375/375 500/500
f 532/532 469/469 463/463
f 394/394 490/490 437/437
f 441/441 478/478 303/303
f 448/448 395/395 500/500
f 452/452 505/505 501/501
f 445/445 344/344 501/501
f 448/448 532/532 463/463
f 331/331 448/448 462/462
f 462/462 469/469 220/220
f 444/444 441/441 408/408
f 441/441 394/394 478/478
f 437/437 490/490 455/455
f 344/344 452/452 501/501
f 426/426 532/532 510/510
f 532/532 448/448 500/500
f 427/427 426/426 447/447
f 303/303 408/408 441/441
f 509/509 490/490 394/394
f 445/445 501/501 505/505
f 546/546 426/426 555/555
f 546/546 445/445 505/505
f 477/477 445/445 546/546
f 408/408 432/432 477/477
f 447/447 505/505 452/452
f 509/509 441/441 444/444
f 447/447 452/452 427/427
f 409/409 509/509 550/550
f 575/575 500/500 480/480
f 566/566 449/449 575/575
f 532/532 426/426 469/469
f 426/426 546/546 505/505
f 452/452 344/344 319/319
f 408/408 477/477 546/546
f 336/336 427/427 452/452
f 426/426 505/505 447/447
f 448/448 463/463 462/462
f 455/455 490/490 478/478
f 575/575 532/532 500/500
f 477/477 344/344 445/445
f 463/463 469/469 462/462
f 426/426 427/427 469/469
f 408/408 303/303 432/432
f 394/394 455/455 478/478
f 455/455 394/394 437/437
f 409/409 490/490 509/509
f 409/409 466/466 490/490
f 509/509 394/394 441/441
f 565/565 509/509 444/444
f 518/518 449/449 559/559
f 519/519 510/510 449/449
f 565/565 408/408 546/546
f 510/510 555/555 426/426
f 555/555 507/507 546/546
f 548/548 546/546 507/507
f 550/550 521/521 517/517
f 547/547 555/555 510/510
f 541/541 527/527 565/565
f 510/510 519/519 547/547
f 518/518 559/559 520/520
f 521/521 509/509 565/565
f 507/507 355/355 548/548
f 510/510 532/532 449/449
f 555/555 547/547 576/576
f 526/526 555/555 576/576
f 449/449 532/532 575/575
f 355/355 385/385 548/548
f 565/565 444/444 408/408
f 546/546 548/548 565/565
f 449/449 518/518 519/519
f 548/548 541/541 565/565
f 548/548 385/385 335/335
f 534/534 517/517 343/343
f 521/521 343/343 517/517
f 335/335 541/541 548/548
f 522/522 526/526 358/358
f 385/385 355/355 574/574
f 574/574 522/522 471/471
f 522/522 358/358 471/471
f 343/343 562/562 553/553
f 335/335 504/504 541/541
f 578/578 385/385 574/574
f 502/502 541/541 504/504
f 560/560 502/502 530/530
f 358/358 573/573 471/471
f 301/301 553/553 585/585
f 529/529 523/523 512/512
f 531/531 540/540 514/514
f 318/318 523/523 315/315
f 570/570 529/529 420/420
f 318/318 512/512 523/523
f 577/577 530/530 556/556
f 511/511 318/318 315/315
f 542/542 318/318 511/511
f 530/530 502/502 556/556
f 335/335 385/385 504/504
f 542/542 511/511 515/515
f 549/549 560/560 530/530
f 526/526 522/522 507/507
f 531/531 514/514 564/564
f 556/556 504/504 578/578
f 551/551 531/531 577/577
f 343/343 521/521 527/527
f 529/529 577/577 531/531
f 530/530 577/577 529/529
f 502/502 560/560 541/541
f 515/515 562/562 549/549
f 420/420 564/564 554/554
f 511/511 553/553 562/562
f 318/318 542/542 512/512
f 529/529 512/512 530/530
f 555/555 526/526 507/507
f 541/541 560/560 527/527
f 355/355 507/507 522/522
f 574/574 471/471 572/572
f 522/522 574/574 355/355
f 420/420 531/531 564/564
f 534/534 553/553 301/301
f 542/542 549/549 512/512
f 343/343 553/553 534/534
f 549/549 542/542 515/515
f 560/560 549/549 562/562
f 556/556 502/502 504/504
f 565/565 527/527 521/521
f 578/578 504/504 385/385
f 560/560 562/562 527/527
f 585/585 511/511 315/315
f 420/420 529/529 531/531
f 511/511 562/562 515/515
f 530/530 512/512 549/549
f 572/572 578/578 574/574
f 527/527 562/562 343/343
f 136/136 104/104 13/13
f 580/580 7/7 23/23
f 90/90 96/96 99/99
f 88/88 99/99 96/96
f 29/29 213/213 142/142
f 50/50 25/25 22/22
f 111/111 22/22 25/25
f 90/90 87/87 96/96
f 31/31 29/29 99/99
f 22/22 102/102 112/112
f 101/101 22/22 112/112
f 63/63 92/92 86/86
f 31/31 99/99 130/130
f 130/130 110/110 31/31
f 92/92 115/115 96/96
f 580/580 92/92 90/90
f 95/95 136/136 58/58
f 115/115 13/13 14/14
f 14/14 88/88 115/115
f 110/110 50/50 101/101
f 44/44 114/114 102/102
f 25/25 50/50 131/131
f 25/25 131/131 67/67
f 111/111 10/10 51/51
f 92/92 136/136 115/115
f 13/13 104/104 14/14
f 104/104 136/136 95/95
f 90/90 99/99 142/142
f 99/99 29/29 142/142
f 580/580 90/90 7/7
f 96/96 115/115 88/88
f 133/133 132/132 88/88
f 90/90 92/92 87/87
f 92/92 96/96 87/87
f 101/101 112/112 29/29
f 101/101 29/29 31/31
f 88/88 14/14 133/133
f 102/102 22/22 44/44
f 101/101 31/31 110/110
f 22/22 101/101 50/50
f 132/132 130/130 99/99
f 99/99 88/88 132/132
f 22/22 111/111 44/44
f 133/133 14/14 104/104
f 65/65 133/133 104/104
f 111/111 51/51 44/44
f 67/67 111/111 25/25
f 136/136 13/13 115/115
f 131/131 50/50 110/110
f 92/92 63/63 136/136
f 86/86 92/92 580/580
f 579/579 580/580 23/23
f 580/580 579/579 86/86
f 20/20 53/53 123/123
f 69/69 74/74 48/48
f 48/48 6/6 53/53
f 83/83 10/10 21/21
f 53/53 66/66 62/62
f 71/71 67/67 131/131
f 20/20 123/123 71/71
f 20/20 131/131 66/66
f 71/71 131/131 20/20
f 135/135 100/100 69/69
f 65/65 104/104 135/135
f 65/65 62/62 132/132
f 52/52 62/62 69/69
f 48/48 52/52 69/69
f 81/81 141/141 74/74
f 130/130 66/66 110/110
f 53/53 52/52 48/48
f 62/62 130/130 132/132
f 130/130 62/62 66/66
f 65/65 69/69 62/62
f 111/111 21/21 10/10
f 71/71 21/21 111/111
f 53/53 6/6 125/125
f 53/53 20/20 66/66
f 100/100 135/135 95/95
f 135/135 104/104 95/95
f 65/65 132/132 133/133
f 110/110 66/66 131/131
f 69/69 65/65 135/135
f 67/67 71/71 111/111
f 52/52 53/53 62/62
f 154/154 77/77 12/12
f 77/77 39/39 15/15
f 506/506 15/15 39/39
f 154/154 60/60 218/218
f 60/60 154/154 42/42
f 42/42 188/188 60/60
f 15/15 12/12 77/77
f 154/154 158/158 77/77
f 37/37 222/222 39/39
f 42/42 154/154 12/12
f 37/37 39/39 77/77
f 42/42 12/12 134/134
f 524/524 129/129 218/218
f 218/218 158/158 154/154
f 169/169 39/39 222/222
f 222/222 537/537 169/169
f 218/218 253/253 524/524
f 218/218 60/60 253/253
f 525/525 60/60 188/188
f 39/39 169/169 506/506
f 197/197 537/537 222/222
f 590/590 589/589 558/558
f 524/524 587/587 438/438
f 197/197 558/558 537/537
f 506/506 591/591 557/557
f 591/591 169/169 589/589
f 587/587 60/60 525/525
f 537/537 558/558 589/589
f 253/253 587/587 524/524
f 60/60 587/587 253/253
f 591/591 506/506 169/169
f 589/589 169/169 537/537
f 440/440 588/588 587/587
f 535/535 587/587 567/567
f 440/440 587/587 535/535
f 589/589 557/557 591/591
f 590/590 557/557 589/589
f 43/43 11/11 16/16
f 80/80 120/120 179/179
f 109/109 94/94 36/36
f 41/41 109/109 36/36
f 45/45 109/109 41/41
f 41/41 38/38 45/45
f 112/112 113/113 120/120
f 94/94 120/120 113/113
f 109/109 108/108 94/94
f 43/43 16/16 127/127
f 45/45 582/582 108/108
f 120/120 94/94 108/108
f 45/45 108/108 109/109
f 118/118 113/113 112/112
f 127/127 41/41 36/36
f 127/127 16/16 41/41
f 118/118 112/112 102/102
f 113/113 36/36 94/94
f 112/112 120/120 80/80
f 582/582 45/45 38/38
f 195/195 7/7 142/142
f 142/142 57/57 195/195
f 142/142 7/7 90/90
f 156/156 61/61 195/195
f 213/213 57/57 142/142
f 191/191 213/213 203/203
f 112/112 32/32 203/203
f 213/213 29/29 112/112
f 112/112 203/203 213/213
f 183/183 232/232 32/32
f 227/227 191/191 203/203
f 32/32 237/237 203/203
f 211/211 159/159 347/347
f 156/156 195/195 161/161
f 161/161 195/195 219/219
f 225/225 213/213 191/191
f 159/159 57/57 213/213
f 281/281 176/176 219/219
f 159/159 225/225 347/347
f 333/333 225/225 191/191
f 32/32 232/232 237/237
f 213/213 225/225 159/159
f 211/211 195/195 57/57
f 211/211 57/57 159/159
f 195/195 211/211 252/252
f 554/554 564/564 544/544
f 494/494 422/422 439/439
f 422/422 494/494 544/544
f 422/422 472/472 493/493
f 486/486 493/493 489/489
f 472/472 422/422 508/508
f 472/472 489/489 493/493
f 494/494 439/439 413/413
f 514/514 508/508 422/422
f 439/439 403/403 413/413
f 514/514 422/422 544/544
f 422/422 493/493 439/439
f 493/493 486/486 464/464
f 554/554 544/544 494/494
f 514/514 544/544 564/564
f 517/517 381/381 485/485
f 550/550 421/421 409/409
f 460/460 429/429 450/450
f 411/411 485/485 428/428
f 465/465 411/411 430/430
f 517/517 485/485 421/421
f 460/460 399/399 430/430
f 430/430 399/399 465/465
f 411/411 465/465 409/409
f 399/399 460/460 450/450
f 396/396 428/428 485/485
f 517/517 421/421 550/550
f 429/429 460/460 464/464
f 421/421 411/411 409/409
f 396/396 485/485 442/442
f 465/465 466/466 409/409
f 485/485 381/381 442/442
f 485/485 411/411 421/421
f 460/460 430/430 411/411
f 322/322 313/313 347/347
f 322/322 347/347 405/405
f 333/333 405/405 225/225
f 342/342 410/410 476/476
f 342/342 476/476 457/457
f 410/410 313/313 322/322
f 410/410 296/296 313/313
f 225/225 405/405 347/347
f 310/310 373/373 342/342
f 342/342 296/296 410/410
f 342/342 373/373 296/296
f 333/333 479/479 405/405
f 487/487 333/333 327/327
f 495/495 457/457 476/476
f 552/552 570/570 420/420
f 585/585 528/528 563/563
f 586/586 528/528 585/585
f 301/301 360/360 534/534
f 360/360 563/563 274/274
f 529/529 584/584 523/523
f 588/588 360/360 400/400
f 315/315 584/584 585/585
f 274/274 552/552 400/400
f 563/563 561/561 274/274
f 360/360 274/274 400/400
f 301/301 563/563 360/360
f 586/586 584/584 263/263
f 553/553 511/511 585/585
f 570/570 274/274 561/561
f 584/584 529/529 570/570
f 554/554 552/552 420/420
f 570/570 552/552 274/274
f 263/263 528/528 586/586
f 534/534 360/360 588/588
f 315/315 523/523 584/584
f 554/554 590/590 552/552
f 585/585 584/584 586/586
f 539/539 513/513 443/443
f 539/539 538/538 513/513
f 539/539 479/479 487/487
f 468/468 476/476 513/513
f 479/479 443/443 405/405
f 513/513 484/484 443/443
f 443/443 322/322 405/405
f 484/484 410/410 322/322
f 443/443 484/484 322/322
f 484/484 476/476 410/410
f 503/503 571/571 538/538
f 571/571 533/533 538/538
f 457/457 495/495 417/417
f 468/468 495/495 476/476
f 484/484 513/513 476/476
f 539/539 443/443 479/479
f 513/513 451/451 468/468
f 539/539 492/492 538/538
f 533/533 513/513 538/538
f 328/328 503/503 538/538
f 302/302 513/513 533/533
f 328/328 538/538 492/492
f 11/11 54/54 55/55
f 137/137 11/11 43/43
f 54/54 11/11 137/137
f 46/46 24/24 55/55
f 173/173 105/105 55/55
f 55/55 24/24 173/173
f 55/55 54/54 46/46
f 54/54 17/17 46/46
f 137/137 17/17 54/54
f 162/162 121/121 122/122
f 162/162 158/158 64/64
f 15/15 4/4 12/12
f 134/134 91/91 97/97
f 139/139 4/4 15/15
f 199/199 162/162 139/139
f 15/15 199/199 139/139
f 64/64 91/91 162/162
f 91/91 139/139 162/162
f 134/134 12/12 91/91
f 121/121 162/162 199/199
f 97/97 180/180 151/151
f 15/15 506/506 199/199
f 91/91 12/12 4/4
f 162/162 122/122 158/158
f 91/91 64/64 97/97
f 97/97 129/129 180/180
f 91/91 4/4 139/139
f 557/557 199/199 506/506
f 264/264 283/283 160/160
f 264/264 160/160 174/174
f 264/264 174/174 248/248
f 288/288 386/386 221/221
f 261/261 419/419 386/386
f 248/248 288/288 221/221
f 221/221 217/217 248/248
f 221/221 583/583 217/217
f 217/217 264/264 248/248
f 368/368 583/583 221/221
f 368/368 305/305 583/583
f 221/221 386/386 368/368
f 368/368 386/386 419/419
f 306/306 339/339 349/349
f 339/339 305/305 368/368
f 261/261 354/354 419/419
f 349/349 368/368 419/419
f 349/349 339/339 368/368
f 518/518 571/571 503/503
f 518/518 520/520 571/571
f 571/571 520/520 533/533
f 576/576 328/328 573/573
f 573/573 358/358 576/576
f 547/547 328/328 576/576
f 519/519 518/518 503/503
f 520/520 543/543 533/533
f 503/503 328/328 547/547
f 576/576 358/358 526/526
f 503/503 547/547 519/519
f 413/413 403/403 470/470
f 396/396 442/442 403/403
f 438/438 400/400 470/470
f 438/438 442/442 536/536
f 413/413 470/470 496/496
f 496/496 400/400 552/552
f 403/403 442/442 470/470
f 588/588 400/400 438/438
f 536/536 442/442 440/440
f 588/588 440/440 442/442
f 496/496 558/558 494/494
f 442/442 381/381 588/588
f 413/413 496/496 494/494
f 400/400 496/496 470/470
f 438/438 470/470 442/442
f 534/534 588/588 381/381
f 534/534 381/381 517/517
f 438/438 587/587 588/588
f 97/97 151/151 134/134
f 37/37 77/77 158/158
f 134/134 151/151 42/42
f 97/97 158/158 218/218
f 122/122 222/222 37/37
f 158/158 122/122 37/37
f 97/97 218/218 129/129
f 97/97 64/64 158/158
f 151/151 180/180 215/215
f 151/151 188/188 42/42
f 151/151 215/215 188/188
f 215/215 567/567 525/525
f 122/122 197/197 222/222
f 188/188 215/215 525/525
f 525/525 567/567 587/587
f 112/112 80/80 32/32
f 145/145 179/179 120/120
f 174/174 120/120 155/155
f 32/32 143/143 183/183
f 174/174 145/145 120/120
f 80/80 143/143 32/32
f 179/179 143/143 80/80
f 160/160 145/145 174/174
f 167/167 143/143 246/246
f 246/246 143/143 179/179
f 348/348 266/266 183/183
f 152/152 179/179 145/145
f 167/167 183/183 143/143
f 129/129 524/524 241/241
f 129/129 241/241 180/180
f 215/215 180/180 567/567
f 535/535 536/536 440/440
f 536/536 535/535 180/180
f 535/535 567/567 180/180
f 524/524 438/438 536/536
f 180/180 241/241 536/536
f 536/536 241/241 524/524
f 199/199 557/557 121/121
f 121/121 481/481 197/197
f 197/197 122/122 121/121
f 197/197 481/481 558/558
f 558/558 496/496 552/552
f 557/557 558/558 481/481
f 590/590 494/494 558/558
f 121/121 557/557 481/481
f 590/590 558/558 557/557
f 590/590 558/558 552/552
f 17/17 78/78 72/72
f 17/17 59/59 89/89
f 70/70 89/89 83/83
f 21/21 71/71 83/83
f 128/128 78/78 70/70
f 89/89 78/78 17/17
f 70/70 78/78 89/89
f 70/70 83/83 71/71
f 56/56 26/26 84/84
f 120/120 108/108 155/155
f 155/155 47/47 181/181
f 108/108 47/47 155/155
f 98/98 108/108 582/582
f 98/98 582/582 26/26
f 82/82 26/26 582/582
f 108/108 98/98 47/47
f 26/26 82/82 84/84
f 84/84 38/38 56/56
f 582/582 38/38 82/82
f 84/84 82/82 38/38
f 475/475 412/412 551/551
f 473/473 568/568 453/453
f 471/471 568/568 572/572
f 572/572 473/473 556/556
f 568/568 539/539 418/418
f 568/568 418/418 453/453
f 453/453 418/418 475/475
f 539/539 435/435 418/418
f 475/475 397/397 412/412
f 453/453 475/475 473/473
f 573/573 539/539 471/471
f 473/473 475/475 551/551
f 577/577 556/556 473/473
f 473/473 551/551 577/577
f 568/568 471/471 539/539
f 568/568 473/473 572/572
f 531/531 551/551 540/540
f 578/578 572/572 556/556
f 419/419 321/321 489/489
f 415/415 393/393 374/374
f 423/423 393/393 415/415
f 393/393 483/483 374/374
f 374/374 349/349 415/415
f 349/349 419/419 415/415
f 472/472 508/508 419/419
f 489/489 472/472 419/419
f 423/423 446/446 393/393
f 397/397 446/446 423/423
f 250/250 245/245 311/311
f 250/250 275/275 245/245
f 245/245 275/275 286/286
f 350/350 250/250 311/311
f 307/307 350/350 311/311
f 76/76 9/9 75/75
f 79/79 41/41 75/75
f 76/76 75/75 41/41
f 105/105 9/9 55/55
f 16/16 76/76 41/41
f 76/76 11/11 55/55
f 55/55 9/9 76/76
f 79/79 47/47 38/38
f 79/79 38/38 41/41
f 76/76 16/16 11/11
f 296/296 252/252 313/313
f 296/296 373/373 284/284
f 288/288 248/248 174/174
f 419/419 508/508 415/415
f 540/540 415/415 508/508
f 540/540 412/412 415/415
f 540/540 508/508 514/514
f 415/415 397/397 423/423
f 412/412 397/397 415/415
f 540/540 551/551 412/412
f 361/361 246/246 223/223
f 361/361 223/223 320/320
f 361/361 482/482 246/246
f 382/382 320/320 383/383
f 383/383 320/320 312/312
f 482/482 390/390 246/246
f 382/382 361/361 320/320
f 78/78 128/128 93/93
f 46/46 72/72 33/33
f 33/33 72/72 78/78
f 93/93 33/33 78/78
f 493/493 428/428 439/439
f 464/464 460/460 493/493
f 439/439 396/396 403/403
f 428/428 396/396 439/439
f 428/428 493/493 460/460
f 460/460 411/411 428/428
f 264/264 217/217 286/286
f 245/245 286/286 217/217
f 307/307 311/311 339/339
f 306/306 307/307 339/339
f 583/583 245/245 217/217
f 305/305 339/339 311/311
f 311/311 583/583 305/305
f 245/245 583/583 311/311
f 114/114 5/5 118/118
f 5/5 59/59 118/118
f 44/44 51/51 114/114
f 118/118 102/102 114/114
f 59/59 113/113 118/118
f 181/181 79/79 147/147
f 155/155 181/181 148/148
f 174/174 155/155 148/148
f 174/174 148/148 254/254
f 288/288 174/174 254/254
f 570/570 561/561 584/584
f 584/584 561/561 263/263
f 301/301 585/585 563/563
f 563/563 263/263 561/561
f 528/528 263/263 563/563
f 27/27 107/107 68/68
f 68/68 107/107 138/138
f 73/73 68/68 8/8
f 138/138 33/33 30/30
f 138/138 107/107 35/35
f 73/73 27/27 68/68
f 390/390 416/416 348/348
f 382/382 482/482 361/361
f 390/390 474/474 416/416
f 474/474 390/390 482/482
f 382/382 488/488 482/482
f 418/418 435/435 416/416
f 581/581 126/126 124/124
f 7/7 124/124 40/40
f 40/40 126/126 2/2
f 7/7 40/40 23/23
f 40/40 124/124 126/126
f 195/195 296/296 219/219
f 281/281 296/296 284/284
f 195/195 252/252 296/296
f 219/219 296/296 281/281
f 35/35 46/46 33/33
f 35/35 107/107 27/27
f 33/33 138/138 35/35
f 17/17 72/72 46/46
f 46/46 35/35 24/24
f 24/24 35/35 117/117
f 7/7 195/195 61/61
f 156/156 63/63 61/61
f 137/137 59/59 17/17
f 127/127 36/36 113/113
f 127/127 113/113 59/59
f 127/127 59/59 43/43
f 43/43 59/59 137/137
f 61/61 124/124 7/7
f 63/63 86/86 61/61
f 61/61 86/86 124/124
f 124/124 86/86 581/581
f 393/393 488/488 483/483
f 327/327 333/333 227/227
f 231/231 203/203 237/237
f 323/323 231/231 256/256
f 256/256 231/231 237/237
f 374/374 306/306 349/349
f 374/374 483/483 382/382
f 374/374 383/383 306/306
f 382/382 383/383 374/374
f 397/397 418/418 488/488
f 475/475 418/418 397/397
f 479/479 333/333 487/487
f 277/277 323/323 487/487
f 435/435 487/487 323/323
f 487/487 435/435 539/539
f 573/573 328/328 492/492
f 492/492 539/539 573/573
f 250/250 312/312 298/298
f 383/383 350/350 306/306
f 350/350 307/307 306/306
f 383/383 312/312 350/350
f 312/312 250/250 350/350
f 85/85 141/141 106/106
f 74/74 141/141 85/85
f 89/89 59/59 5/5
f 83/83 89/89 5/5
f 74/74 119/119 48/48
f 85/85 119/119 74/74
f 138/138 30/30 1/1
f 68/68 138/138 1/1
f 313/313 211/211 347/347
f 211/211 313/313 252/252
f 391/391 266/266 348/348
f 416/416 391/391 348/348
f 93/93 1/1 30/30
f 30/30 33/33 93/93
f 277/277 227/227 231/231
f 327/327 227/227 277/277
f 446/446 488/488 393/393
f 38/38 98/98 84/84
f 84/84 26/26 56/56
f 56/56 38/38 84/84
f 26/26 84/84 98/98
f 106/106 119/119 85/85
f 106/106 116/116 119/119
f 277/277 487/487 327/327
f 8/8 68/68 93/93
f 8/8 93/93 73/73
f 152/152 223/223 246/246
f 390/390 167/167 246/246
f 181/181 47/47 79/79
f 38/38 47/47 98/98
f 418/418 416/416 474/474
f 418/418 474/474 482/482
f 482/482 488/488 418/418
f 482/482 474/474 488/488
f 366/366 380/380 309/309
f 309/309 391/391 366/366
f 283/283 223/223 152/152
f 152/152 246/246 179/179
f 554/554 494/494 590/590
f 152/152 145/145 160/160
f 283/283 152/152 160/160
f 309/309 232/232 391/391
f 40/40 2/2 23/23
f 391/391 416/416 366/366
f 416/416 435/435 366/366
f 27/27 73/73 93/93
f 283/283 286/286 275/275
f 264/264 286/286 283/283
f 298/298 283/283 275/275
f 93/93 68/68 1/1
f 323/323 277/277 231/231
f 48/48 119/119 6/6
f 6/6 119/119 103/103
f 579/579 581/581 86/86
f 581/581 579/579 140/140
f 380/380 256/256 309/309
f 232/232 309/309 256/256
f 256/256 237/237 232/232
f 579/579 2/2 140/140
f 348/348 183/183 167/167
f 390/390 348/348 167/167
f 435/435 256/256 380/380
f 323/323 256/256 435/435
f 333/333 191/191 227/227
f 5/5 114/114 83/83
f 298/298 312/312 320/320
f 2/2 126/126 581/581
f 10/10 114/114 51/51
f 298/298 275/275 250/250
f 140/140 2/2 581/581
f 83/83 114/114 10/10
f 266/266 348/348 183/183
f 223/223 283/283 320/320
f 320/320 283/283 298/298
f 231/231 227/227 203/203
f 2/2 579/579 23/23
f 488/488 446/446 397/397
f 391/391 232/232 348/348
f 483/483 488/488 382/382
f 391/391 348/348 266/266
f 435/435 380/380 366/366
f 474/474 482/482 488/488
f 348/348 232/232 183/183
